<svg width="34" height="34" viewBox="0 0 34 34" fill="none" xmlns="http://www.w3.org/2000/svg">
<path d="M17 16.2917C16.0607 16.2917 15.1599 15.9186 14.4957 15.2544C13.8315 14.5902 13.4583 13.6894 13.4583 12.75C13.4583 11.8107 13.8315 10.9099 14.4957 10.2457C15.1599 9.58151 16.0607 9.20837 17 9.20837C17.9393 9.20837 18.8401 9.58151 19.5043 10.2457C20.1685 10.9099 20.5417 11.8107 20.5417 12.75C20.5417 13.2151 20.4501 13.6757 20.2721 14.1054C20.0941 14.5351 19.8332 14.9255 19.5043 15.2544C19.1755 15.5833 18.785 15.8441 18.3553 16.0221C17.9256 16.2001 17.4651 16.2917 17 16.2917ZM17 2.83337C14.3699 2.83337 11.8476 3.87816 9.98785 5.7379C8.12812 7.59763 7.08333 10.12 7.08333 12.75C7.08333 20.1875 17 31.1667 17 31.1667C17 31.1667 26.9167 20.1875 26.9167 12.75C26.9167 10.12 25.8719 7.59763 24.0121 5.7379C22.1524 3.87816 19.6301 2.83337 17 2.83337Z" fill="white"/>
</svg>
