<svg width="34" height="34" viewBox="0 0 34 34" fill="none" xmlns="http://www.w3.org/2000/svg">
<path d="M28.3333 11.3333L17 18.4166L5.66666 11.3333V8.49996L17 15.5833L28.3333 8.49996M28.3333 5.66663H5.66666C4.09416 5.66663 2.83333 6.92746 2.83333 8.49996V25.5C2.83333 26.2514 3.13184 26.9721 3.66319 27.5034C4.19455 28.0348 4.91522 28.3333 5.66666 28.3333H28.3333C29.0848 28.3333 29.8054 28.0348 30.3368 27.5034C30.8682 26.9721 31.1667 26.2514 31.1667 25.5V8.49996C31.1667 7.74851 30.8682 7.02784 30.3368 6.49649C29.8054 5.96514 29.0848 5.66663 28.3333 5.66663Z" fill="white"/>
</svg>
