<svg width="34" height="28" viewBox="0 0 34 28" fill="none" xmlns="http://www.w3.org/2000/svg">
<path d="M0.333328 4C0.333328 3.11594 0.684518 2.2681 1.30964 1.64298C1.93476 1.01786 2.78261 0.666666 3.66666 0.666666H30.3333C31.2174 0.666666 32.0652 1.01786 32.6903 1.64298C33.3155 2.2681 33.6667 3.11594 33.6667 4V24C33.6667 24.8841 33.3155 25.7319 32.6903 26.357C32.0652 26.9821 31.2174 27.3333 30.3333 27.3333H3.66666C2.78261 27.3333 1.93476 26.9821 1.30964 26.357C0.684518 25.7319 0.333328 24.8841 0.333328 24V4ZM6.19833 4L17 13.4517L27.8017 4H6.19999H6.19833ZM30.3333 6.215L18.0983 16.9217C17.7944 17.188 17.4041 17.3348 17 17.3348C16.5959 17.3348 16.2056 17.188 15.9017 16.9217L3.66666 6.215V24H30.3333V6.215Z" fill="white"/>
</svg>
