<svg width="36" height="36" viewBox="0 0 36 36" fill="none" xmlns="http://www.w3.org/2000/svg">
<path d="M24.25 0.5C22.4932 0.499597 20.7608 0.910708 19.1916 1.70039C17.6223 2.49007 16.2598 3.63635 15.2133 5.0474C14.1668 6.45844 13.4654 8.09499 13.1653 9.82592C12.8651 11.5568 12.9746 13.334 13.485 15.015L0.5 28V35.5H8L20.985 22.515C22.5324 22.9847 24.1628 23.1153 25.7652 22.8978C27.3676 22.6804 28.9043 22.1201 30.2706 21.2551C31.6369 20.39 32.8006 19.2406 33.6825 17.8851C34.5644 16.5297 35.1437 15 35.3809 13.4004C35.6181 11.8008 35.5077 10.1689 35.0572 8.6158C34.6067 7.06273 33.8267 5.62504 32.7703 4.4007C31.7139 3.17636 30.4059 2.19415 28.9356 1.52101C27.4653 0.847874 25.8671 0.499625 24.25 0.5ZM24.25 20.5C23.3894 20.4995 22.5335 20.3723 21.71 20.1225L20.2762 19.6875L19.2175 20.7463L15.2413 24.7225L13.5175 23L11.75 24.7675L13.4737 26.4912L11.4913 28.4737L9.7675 26.75L8 28.5175L9.72375 30.2412L6.965 33H3V29.035L15.2525 16.7825L16.3125 15.7238L15.8775 14.29C15.3432 12.5287 15.3779 10.6439 15.9767 8.90346C16.5754 7.16306 17.7078 5.65579 19.2125 4.59603C20.7173 3.53628 22.518 2.97802 24.3584 3.00066C26.1987 3.0233 27.9851 3.6257 29.4634 4.72215C30.9417 5.8186 32.0365 7.35328 32.5923 9.10788C33.148 10.8625 33.1364 12.7476 32.5589 14.4952C31.9815 16.2428 30.8677 17.7638 29.3759 18.8419C27.8842 19.9199 26.0905 20.5002 24.25 20.5Z" fill="white"/>
</svg>
