<svg width="24" height="24" viewBox="0 0 24 24" fill="none" xmlns="http://www.w3.org/2000/svg">
<path d="M12.7515 2.25C12.7515 2.05109 12.6725 1.86032 12.5318 1.71967C12.3912 1.57902 12.2004 1.5 12.0015 1.5C11.8026 1.5 11.6118 1.57902 11.4712 1.71967C11.3305 1.86032 11.2515 2.05109 11.2515 2.25V3H9.75C9.15326 3 8.58097 3.23705 8.15901 3.65901C7.73705 4.08097 7.5 4.65326 7.5 5.25V6.006C8.29565 6.006 9.05871 6.32207 9.62132 6.88468C10.1839 7.44729 10.5 8.21035 10.5 9.006V21H13.5V11.256C13.4998 10.3915 13.7983 9.55351 14.345 8.88382C14.8917 8.21414 15.653 7.7539 16.5 7.581V5.25C16.5 4.65326 16.2629 4.08097 15.841 3.65901C15.419 3.23705 14.8467 3 14.25 3H12.7515V2.25ZM18.75 21H15V11.256C15 10.6593 15.2371 10.087 15.659 9.66501C16.081 9.24305 16.6533 9.006 17.25 9.006H18.75V9C19.3467 9 19.919 9.23705 20.341 9.65901C20.7629 10.081 21 10.6533 21 11.25V18.75C21 19.3467 20.7629 19.919 20.341 20.341C19.919 20.7629 19.3467 21 18.75 21ZM7.2645 7.7025C7.43441 7.59235 7.63089 7.53009 7.83323 7.5223C8.03557 7.51452 8.23626 7.56148 8.41413 7.65825C8.592 7.75502 8.74046 7.898 8.84384 8.07211C8.94722 8.24623 9.00169 8.44501 9.0015 8.6475L9 20.25C9 20.4489 8.92098 20.6397 8.78033 20.7803C8.63968 20.921 8.44891 21 8.25 21H5.25C4.65326 21 4.08097 20.7629 3.65901 20.341C3.23705 19.919 3 19.3467 3 18.75V11.6895C3.00016 11.3144 3.0941 10.9452 3.2733 10.6157C3.45249 10.2861 3.71123 10.0066 4.026 9.8025L7.266 7.7025H7.2645Z" fill="white"/>
</svg>
