<svg width="34" height="34" viewBox="0 0 34 34" fill="none" xmlns="http://www.w3.org/2000/svg">
<path d="M11.0103 3.45527L12.5347 2.96793C13.9641 2.51177 15.4913 3.24985 16.1033 4.69202L17.3216 7.56502C17.8514 8.81593 17.5568 10.2878 16.5934 11.203L13.9088 13.7502C14.0746 15.2745 14.5874 16.7748 15.4459 18.2509C16.2612 19.6791 17.3547 20.9292 18.6618 21.9272L21.8861 20.8505C23.1073 20.4439 24.4389 20.9128 25.1869 22.0136L26.9337 24.5778C27.8049 25.8584 27.6477 27.6236 26.5668 28.7088L25.4093 29.8718C24.2562 31.0293 22.6086 31.45 21.0857 30.974C17.4873 29.852 14.1823 26.5214 11.1648 20.9823C8.143 15.4346 7.07625 10.7256 7.96592 6.86093C8.33992 5.2346 9.49734 3.93835 11.0103 3.45527Z" fill="white"/>
</svg>
