<svg width="10" height="10" viewBox="0 0 10 10" fill="none" xmlns="http://www.w3.org/2000/svg">
<path d="M9.00004 5.66536H5.66671V8.9987C5.66671 9.17551 5.59647 9.34508 5.47145 9.4701C5.34642 9.59513 5.17685 9.66536 5.00004 9.66536C4.82323 9.66536 4.65366 9.59513 4.52864 9.4701C4.40361 9.34508 4.33337 9.17551 4.33337 8.9987V5.66536H1.00004C0.82323 5.66536 0.653661 5.59513 0.528636 5.4701C0.403612 5.34508 0.333374 5.17551 0.333374 4.9987C0.333374 4.82189 0.403612 4.65232 0.528636 4.52729C0.653661 4.40227 0.82323 4.33203 1.00004 4.33203H4.33337V0.998698C4.33337 0.821887 4.40361 0.652317 4.52864 0.527293C4.65366 0.402269 4.82323 0.332031 5.00004 0.332031C5.17685 0.332031 5.34642 0.402269 5.47145 0.527293C5.59647 0.652317 5.66671 0.821887 5.66671 0.998698V4.33203H9.00004C9.17685 4.33203 9.34642 4.40227 9.47145 4.52729C9.59647 4.65232 9.66671 4.82189 9.66671 4.9987C9.66671 5.17551 9.59647 5.34508 9.47145 5.4701C9.34642 5.59513 9.17685 5.66536 9.00004 5.66536Z" fill="#131313"/>
</svg>
