<svg width="26" height="26" viewBox="0 0 26 26" fill="none" xmlns="http://www.w3.org/2000/svg">
<path d="M25.1375 23.8625L20.5 19.2625C22.3001 17.018 23.1719 14.1691 22.936 11.3016C22.7001 8.43413 21.3746 5.76598 19.2319 3.84581C17.0892 1.92564 14.2923 0.89939 11.4162 0.978091C8.54005 1.05679 5.8034 2.23445 3.76893 4.26893C1.73445 6.3034 0.556791 9.04005 0.478091 11.9162C0.39939 14.7923 1.42564 17.5892 3.34581 19.7319C5.26598 21.8746 7.93413 23.2001 10.8016 23.436C13.6691 23.6719 16.518 22.8001 18.7625 21L23.3625 25.6C23.4787 25.7172 23.617 25.8102 23.7693 25.8736C23.9216 25.9371 24.085 25.9697 24.25 25.9697C24.415 25.9697 24.5784 25.9371 24.7307 25.8736C24.883 25.8102 25.0213 25.7172 25.1375 25.6C25.3628 25.3669 25.4887 25.0554 25.4887 24.7313C25.4887 24.4071 25.3628 24.0956 25.1375 23.8625ZM11.75 21C10.0194 21 8.32769 20.4868 6.88876 19.5254C5.44983 18.5639 4.32832 17.1973 3.66606 15.5985C3.00379 13.9996 2.83051 12.2403 3.16813 10.543C3.50575 8.84563 4.33911 7.28653 5.56282 6.06282C6.78653 4.83911 8.34563 4.00575 10.043 3.66813C11.7403 3.33051 13.4996 3.50379 15.0985 4.16606C16.6973 4.82832 18.0639 5.94983 19.0254 7.38876C19.9868 8.82769 20.5 10.5194 20.5 12.25C20.5 14.5706 19.5781 16.7962 17.9372 18.4372C16.2962 20.0781 14.0706 21 11.75 21Z" fill="#131313"/>
</svg>
